<svg id="Layer_1" data-name="Layer 1" xmlns="http://www.w3.org/2000/svg" viewBox="0 0 40 40"><title>start</title><path class="cls-1" d="M36.71,14.52H26.1a1.49,1.49,0,0,1-1.41-1.07L21.41,2.9a1.46,1.46,0,0,0-2.82,0L15.31,13.45a1.49,1.49,0,0,1-1.41,1.07H3.29a1.56,1.56,0,0,0-.87,2.81L11,23.85a1.59,1.59,0,0,1,.54,1.73L8.26,36.13a1.55,1.55,0,0,0,1.42,2,1.42,1.42,0,0,0,.87-.3l8.58-6.52a1.43,1.43,0,0,1,1.74,0l8.58,6.52a1.42,1.42,0,0,0,.87.3,1.55,1.55,0,0,0,1.42-2L28.46,25.58A1.59,1.59,0,0,1,29,23.85l8.58-6.52A1.56,1.56,0,0,0,36.71,14.52Z"/><path class="cls-2" d="M39.82,15a3.26,3.26,0,0,0-3.12-2.3H26.35L23.14,2.35a3.27,3.27,0,0,0-6.27,0L13.65,12.69H3.29A3.26,3.26,0,0,0,.18,15a3.43,3.43,0,0,0,1.16,3.81l8.43,6.4L6.54,35.58a3.41,3.41,0,0,0,.49,3A3.3,3.3,0,0,0,9.68,40a3.21,3.21,0,0,0,2-.67L20,33l8.37,6.36a3.21,3.21,0,0,0,2,.67A3.3,3.3,0,0,0,33,38.62a3.41,3.41,0,0,0,.49-3L30.24,25.2l8.43-6.4A3.43,3.43,0,0,0,39.82,15ZM29,23.85a1.59,1.59,0,0,0-.54,1.73l3.28,10.55a1.55,1.55,0,0,1-1.42,2,1.42,1.42,0,0,1-.87-.3l-8.58-6.52a1.43,1.43,0,0,0-1.74,0l-8.58,6.52a1.42,1.42,0,0,1-.87.3,1.55,1.55,0,0,1-1.42-2l3.28-10.55A1.59,1.59,0,0,0,11,23.85L2.42,17.33a1.56,1.56,0,0,1,.87-2.81H13.9a1.49,1.49,0,0,0,1.41-1.07L18.59,2.9a1.46,1.46,0,0,1,2.82,0l3.28,10.55a1.49,1.49,0,0,0,1.41,1.07H36.71a1.56,1.56,0,0,1,.87,2.81Z"/></svg>